<?xml version="1.0" encoding="utf-8"?>
<!-- Generator: Adobe Illustrator 26.0.0, SVG Export Plug-In . SVG Version: 6.00 Build 0)  -->
<svg version="1.1" id="图层_1" xmlns="http://www.w3.org/2000/svg" xmlns:xlink="http://www.w3.org/1999/xlink" x="0px" y="0px"
	 viewBox="0 0 1440 900" style="enable-background:new 0 0 1440 900;" xml:space="preserve">
<style type="text/css">
	.st0{fill:none;stroke:#000000;stroke-width:26;stroke-linecap:round;stroke-linejoin:round;stroke-miterlimit:20;}
</style>
<path class="st0" d="M1084.4,389L1084.4,389L1206,206.6"/>
<path class="st0" d="M1206,206.6L1206,206.6L1327.6,389"/>
<path class="st0" d="M1084.4,389L1084.4,389l243.1,121.6"/>
<path class="st0" d="M1206,449.7L1206,449.7l121.6-60.8"/>
<path class="st0" d="M1130,411.8L1130,411.8l76-114"/>
<path class="st0" d="M1206,297.8L1206,297.8l76,114"/>
<path class="st0" d="M1282,411.8L1282,411.8l45.6,98.8"/>
<path class="st0" d="M1206,632.1L1206,632.1l121.6-121.6"/>
<path class="st0" d="M1206,632.1L1206,632.1l60.8,60.8"/>
<path class="st0" d="M1084.4,389L1084.4,389l60.8,60.8"/>
<path class="st0" d="M1145.2,571.3L1145.2,571.3l60.8-121.6"/>
<path class="st0" d="M1145.2,571.3L1145.2,571.3l60.8,121.6"/>
<path class="st0" d="M1145.2,571.3L1145.2,571.3l60.8-30.4"/>
<path class="st0" d="M1206,632.1L1206,632.1v-91.2"/>
<path class="st0" d="M1206,692.9L1206,692.9h60.8"/>
<path class="st0" d="M1266.8,692.9L1266.8,692.9l60.8-60.8"/>
<path class="st0" d="M780.5,692.9L780.5,692.9V206.6"/>
<path class="st0" d="M1023.7,692.9L1023.7,692.9V206.6"/>
<path class="st0" d="M780.5,328.2L780.5,328.2h243.1"/>
<path class="st0" d="M780.5,571.3L780.5,571.3h243.1"/>
<path class="st0" d="M841.3,449.7L841.3,449.7h121.6"/>
<path class="st0" d="M430.8,358.6L430.8,358.6v-152"/>
<path class="st0" d="M674,358.6L674,358.6v-152"/>
<path class="st0" d="M430.8,358.6L430.8,358.6H674"/>
<path class="st0" d="M430.8,267.4L430.8,267.4H674"/>
<path class="st0" d="M674,578.7L674,578.7l-42.4-11.8l-37.3-11.5l-32.1-10.9l-28.6-10.9l-23.9-10.4l-19.8-9.9l-16.1-9.4l-13.6-9.4
	l-10.4-8.9l-8.2-8.9l-5.3-7.8l-3.3-7.3l-1.7-6.8l-0.4-6.2l0.8-6.2l1.9-6.2l3.4-6.8l5.1-7.3l7.2-7.8l10.3-8.9l12.6-8.9l15.9-9.4
	l18.4-9.4l22.2-9.9l23.7-9.4"/>
<path class="st0" d="M430.8,578.7L430.8,578.7l42.4-11.8l37.3-11.5l32.1-10.9l28.6-10.9l23.9-10.4l19.8-9.9l16.1-9.4l13.6-9.4
	l10.4-8.9l8.2-8.9l5.3-7.8l3.3-7.3l1.7-6.8l0.4-6.2l-0.8-6.2l-1.9-6.2l-3.4-6.8l-5.1-7.3l-7.2-7.8l-10.3-8.9l-12.6-8.9l-15.9-9.4
	l-18.4-9.4l-22.2-9.9l-23.7-9.4"/>
<path class="st0" d="M552.4,647.3L552.4,647.3V358.6"/>
<path class="st0" d="M430.8,692.9L430.8,692.9l42.4-11.8l37.3-11.5l32.1-10.9l9.8-3.6"/>
<path class="st0" d="M674,692.9L674,692.9l-42.4-11.8l-37.3-11.5l-32.1-10.9l-9.8-3.6"/>
<path class="st0" d="M111.9,449.7L111.9,449.7l5.8-0.6l5.8-1.7l6.4-3.2l7-5l7.6-7.2l8.2-9.9l8.2-12.1l8.8-15.4l9.4-19.2l9.4-22.1
	l9.9-26.7l10.5-31.8l11.1-37.5l11.7-43.8l1.8-7"/>
<path class="st0" d="M233.5,206.6L233.5,206.6l12.3,46.6l11.7,39.8l11.1,33.6l10.5,28.1L289,378l9.4,18.9l8.8,15.1l8.8,12.6l8.2,9.4
	l8.2,7.2l7.6,4.7l6.4,2.5l5.8,1.1l2.9,0.1"/>
<path class="st0" d="M142.3,692.9L142.3,692.9l152-303.9"/>
<path class="st0" d="M172.7,389L172.7,389l152,303.9"/>
<g>
</g>
<g>
</g>
<g>
</g>
<g>
</g>
<g>
</g>
<g>
</g>
<g>
</g>
<g>
</g>
<g>
</g>
<g>
</g>
<g>
</g>
<g>
</g>
<g>
</g>
<g>
</g>
<g>
</g>
</svg>
